<svg width="22" height="18" viewBox="0 0 24 21" fill="none" xmlns="http://www.w3.org/2000/svg">
    <path fill-rule="evenodd" clip-rule="evenodd"
        d="M21.0678 0C22.6861 0 24 1.14967 24 2.56569V18.4343C24 19.8503 22.6861 21 21.0678 21H16.0771V13.0875H19.199L19.793 9.69872H16.0771V7.49958C16.0771 6.57251 16.5961 5.66881 18.2605 5.66881H19.95V2.78377C19.95 2.78377 18.4167 2.55482 16.9508 2.55482C13.8905 2.55482 11.8902 4.17777 11.8902 7.11592V9.69872H8.48836V13.0875H11.8902V21H2.93222C1.31391 21 0 19.8503 0 18.4343V2.56569C0 1.14967 1.31386 0 2.93222 0L21.0678 0Z"
        class="fill" />
</svg>