<svg width="23" height="23" viewBox="0 0 38 37" fill="none" xmlns="http://www.w3.org/2000/svg">
    <path fill-rule="evenodd" clip-rule="evenodd"
        d="M19 0.25C8.64233 0.25 0.25 8.64233 0.25 19C0.25 27.2825 5.62109 34.3137 13.0735 36.7917C14.0134 36.9626 14.3552 36.3889 14.3552 35.8884C14.3552 35.4429 14.3369 34.2649 14.3308 32.7024C9.1123 33.8315 8.01367 30.1877 8.01367 30.1877C7.15918 28.021 5.93237 27.4412 5.93237 27.4412C4.22949 26.2815 6.06055 26.3059 6.06055 26.3059C7.94043 26.4402 8.9292 28.2346 8.9292 28.2346C10.6016 31.1033 13.3176 30.2732 14.3857 29.7971C14.5566 28.5825 15.0449 27.7585 15.5759 27.2886C11.4133 26.8186 7.03711 25.2073 7.03711 18.0234C7.03711 15.9727 7.76953 14.3003 8.96582 12.988C8.77661 12.5181 8.12964 10.6077 9.14893 8.02588C9.14893 8.02588 10.7236 7.52539 14.3064 9.94849C15.8018 9.53345 17.407 9.32593 19 9.31983C20.593 9.32593 22.1982 9.53345 23.6936 9.94849C27.2764 7.52539 28.845 8.02588 28.845 8.02588C29.8704 10.6077 29.2295 12.5181 29.0342 12.988C30.2366 14.3003 30.9568 15.9727 30.9568 18.0234C30.9568 25.2256 26.5745 26.8064 22.3997 27.2764C23.071 27.8501 23.6692 28.9976 23.6692 30.7432C23.6692 33.2517 23.6509 35.272 23.6509 35.8884C23.6509 36.3889 23.9866 36.9749 24.9387 36.7917C32.385 34.3076 37.75 27.2825 37.75 19C37.75 8.64233 29.3577 0.25 19 0.25Z"
        class="fill hover" />
</svg>