<svg width="23" height="19" viewBox="0 0 24 21" fill="none" xmlns="http://www.w3.org/2000/svg">
    <path
        d="M12.0002 5.03809C8.61309 5.03809 5.80664 7.45139 5.80664 10.4574C5.80664 13.4635 8.56471 15.8768 12.0002 15.8768C15.4357 15.8768 18.1937 13.4212 18.1937 10.4574C18.1937 7.49373 15.3873 5.03809 12.0002 5.03809ZM12.0002 13.9292C9.82277 13.9292 8.03245 12.3627 8.03245 10.4574C8.03245 8.5522 9.82277 6.98567 12.0002 6.98567C14.1776 6.98567 15.9679 8.5522 15.9679 10.4574C15.9679 12.3627 14.1776 13.9292 12.0002 13.9292Z"
        class="fill" />
    <path
        d="M18.4355 6.13924C19.2104 6.13924 19.8387 5.58952 19.8387 4.91142C19.8387 4.23331 19.2104 3.68359 18.4355 3.68359C17.6605 3.68359 17.0322 4.23331 17.0322 4.91142C17.0322 5.58952 17.6605 6.13924 18.4355 6.13924Z"
        class="fill" />
    <path
        d="M22.0645 1.73589C20.8065 0.592742 19.0161 0 16.9839 0H7.01613C2.80645 0 0 2.45564 0 6.13911V14.8185C0 16.6391 0.677419 18.2056 2.03226 19.3488C3.33871 20.4496 5.08065 21 7.06452 21H16.9355C19.0161 21 20.7581 20.4073 22.0161 19.3488C23.3226 18.248 24 16.6815 24 14.8609V6.13911C24 4.36089 23.3226 2.83669 22.0645 1.73589ZM21.871 14.8609C21.871 16.1734 21.3387 17.2319 20.4677 17.9516C19.5968 18.6714 18.3871 19.0524 16.9355 19.0524H7.06452C5.6129 19.0524 4.40323 18.6714 3.53226 17.9516C2.66129 17.1895 2.22581 16.131 2.22581 14.8185V6.13911C2.22581 4.86895 2.66129 3.81048 3.53226 3.04839C4.35484 2.32863 5.6129 1.94758 7.06452 1.94758H17.0323C18.4839 1.94758 19.6935 2.32863 20.5645 3.09073C21.3871 3.85282 21.871 4.91129 21.871 6.13911V14.8609Z"
        class="fill" />
</svg>