<svg width="25" height="18" viewBox="0 0 24 21" fill="none" xmlns="http://www.w3.org/2000/svg">
    <path
        d="M0.304343 6.83037H5.44783V21H0.304343V6.83037ZM2.91051 0C1.15011 0 0 1.05799 0 2.44665C0 3.80674 1.11646 4.89549 2.8432 4.89549H2.876C4.67006 4.89549 5.78731 3.80668 5.78731 2.44665C5.75366 1.05799 4.67011 0 2.91051 0ZM18.0765 6.49752C15.3463 6.49752 14.1231 7.87225 13.4408 8.83635V6.83037H8.29577C8.36389 8.15965 8.29577 21 8.29577 21H13.4408V13.0867C13.4408 12.6629 13.4745 12.2406 13.6098 11.937C13.9823 11.0909 14.8289 10.2147 16.2488 10.2147C18.1118 10.2147 18.8558 11.5147 18.8558 13.4187V20.9999H24V12.8748C24 8.52259 21.4627 6.49752 18.0765 6.49752Z"
        class="fill" />
</svg>