<svg width="23" height="19" viewBox="0 0 24 21" fill="none" xmlns="http://www.w3.org/2000/svg">
    <path
        d="M24 2.48586C23.1177 2.90813 22.1682 3.19296 21.1719 3.32043C22.1891 2.66474 22.9691 1.62612 23.3369 0.387121C22.3855 0.995079 21.3322 1.43623 20.2102 1.67438C19.3123 0.644152 18.0325 0 16.6163 0C13.8973 0 11.6928 2.37361 11.6928 5.30167C11.6928 5.71659 11.7362 6.12102 11.8205 6.50972C7.72815 6.28835 4.09963 4.17807 1.67103 0.970425C1.24718 1.75306 1.00457 2.66369 1.00457 3.63621C1.00457 5.4753 1.8737 7.09827 3.19493 8.04876C2.38816 8.02096 1.62865 7.78229 0.964618 7.3852C0.964131 7.40723 0.964131 7.42978 0.964131 7.45234C0.964131 10.0206 2.66147 12.1628 4.9142 12.6507C4.50107 12.7713 4.06601 12.8364 3.61683 12.8364C3.29919 12.8364 2.9908 12.8033 2.69021 12.7409C3.31722 14.847 5.13538 16.3803 7.28969 16.4227C5.60453 17.8448 3.48188 18.6925 1.17459 18.6925C0.777541 18.6925 0.38536 18.6673 0 18.618C2.17965 20.1229 4.76755 21 7.5479 21C16.6051 21 21.5573 12.9219 21.5573 5.91592C21.5573 5.68617 21.5529 5.45694 21.5436 5.22928C22.5053 4.48336 23.3404 3.54913 24 2.48586Z"
        class="fill" />
</svg>