<svg width="28" height="19" viewBox="0 0 26 19" fill="none" xmlns="http://www.w3.org/2000/svg">
    <path
        d="M25.4665 4.10643C25.391 3.26388 25.0211 2.47486 24.4218 1.87788C23.8225 1.28091 23.032 0.914122 22.1892 0.841923C20.1736 0.674677 17.1862 0.5 13.5002 0.5C9.06121 0.5 5.71046 0.68135 3.54419 0.851412C2.69739 0.91944 1.90196 1.28481 1.29863 1.88287C0.695295 2.48093 0.322959 3.27312 0.2475 4.11929C0.114892 5.51456 0 7.35728 0 9.55439C0 11.6968 0.11394 13.507 0.245931 14.8849C0.322143 15.7303 0.694794 16.5215 1.29801 17.1188C1.90123 17.716 2.69616 18.0807 3.5423 18.1484C5.70849 18.3185 9.05988 18.5 13.5002 18.5C17.1862 18.5 20.1736 18.3253 22.1892 18.158C23.032 18.0858 23.8225 17.7191 24.4218 17.1221C25.0212 16.5251 25.391 15.7361 25.4665 14.8936C25.5992 13.5056 25.7143 11.6753 25.7143 9.5C25.7143 7.32471 25.5992 5.49438 25.4665 4.10643ZM9.99764 13.2784V5.72157L17.4523 9.5L9.99764 13.2784Z"
        class="fill" />
</svg>